<?xml version="1.0" encoding="UTF-8" standalone="no"?>
<!-- Created with Inkscape (http://www.inkscape.org/) -->

<svg
   xmlns:dc="http://purl.org/dc/elements/1.1/"
   xmlns:cc="http://creativecommons.org/ns#"
   xmlns:rdf="http://www.w3.org/1999/02/22-rdf-syntax-ns#"
   xmlns:svg="http://www.w3.org/2000/svg"
   xmlns="http://www.w3.org/2000/svg"
   xmlns:sodipodi="http://sodipodi.sourceforge.net/DTD/sodipodi-0.dtd"
   xmlns:inkscape="http://www.inkscape.org/namespaces/inkscape"
   height="106.76653mm"
   width="101.76723mm"
   viewBox="0 0 360.59256 378.30658"
   id="svg2"
   version="1.1"
   inkscape:version="0.91 r13725"
   sodipodi:docname="yoga-kundalini.svg"
   inkscape:export-filename="/home/algot/Documents/runeman.org/clipart/yoga-kundalini.png"
   inkscape:export-xdpi="88.235298"
   inkscape:export-ydpi="88.235298">
  <title
     id="title3215">Yoga Kundalini</title>
  <defs
     id="defs8" />
  <sodipodi:namedview
     pagecolor="#ffffff"
     bordercolor="#666666"
     borderopacity="1"
     objecttolerance="10"
     gridtolerance="10"
     guidetolerance="10"
     inkscape:pageopacity="0"
     inkscape:pageshadow="2"
     inkscape:window-width="1366"
     inkscape:window-height="712"
     id="namedview6"
     showgrid="false"
     inkscape:zoom="0.5"
     inkscape:cx="-148.81522"
     inkscape:cy="279.06816"
     inkscape:window-x="0"
     inkscape:window-y="0"
     inkscape:window-maximized="1"
     inkscape:current-layer="svg2"
     fit-margin-top="0"
     fit-margin-left="0"
     fit-margin-right="0"
     fit-margin-bottom="0" />
  <metadata
     id="metadata4">
    <rdf:RDF>
      <cc:Work
         rdf:about="">
        <dc:format>image/svg+xml</dc:format>
        <dc:type
           rdf:resource="http://purl.org/dc/dcmitype/StillImage" />
        <dc:title>Yoga Kundalini</dc:title>
        <dc:date>2017-05-08</dc:date>
        <dc:creator>
          <cc:Agent>
            <dc:title>Algot Runeman</dc:title>
          </cc:Agent>
        </dc:creator>
        <dc:rights>
          <cc:Agent>
            <dc:title>Algot Runeman</dc:title>
          </cc:Agent>
        </dc:rights>
        <dc:publisher>
          <cc:Agent>
            <dc:title>runeman.org</dc:title>
          </cc:Agent>
        </dc:publisher>
        <dc:identifier>yoga-kundalini.svg</dc:identifier>
        <cc:license
           rdf:resource="http://creativecommons.org/publicdomain/zero/1.0/" />
      </cc:Work>
      <cc:License
         rdf:about="http://creativecommons.org/publicdomain/zero/1.0/">
        <cc:permits
           rdf:resource="http://creativecommons.org/ns#Reproduction" />
        <cc:permits
           rdf:resource="http://creativecommons.org/ns#Distribution" />
        <cc:permits
           rdf:resource="http://creativecommons.org/ns#DerivativeWorks" />
      </cc:License>
    </rdf:RDF>
  </metadata>
  <path
     style="fill:#000000;fill-rule:evenodd;stroke:#000000;stroke-width:1px;stroke-linecap:butt;stroke-linejoin:miter;stroke-opacity:1"
     d="m 115.30935,130.55159 5,-1 4,0 11,-5 7.70236,-2.00984 8.48528,-5.3033 3.53554,-3.18198 4.94975,-5.65686 2.12132,-4.94975 1.06066,-4.596188 -0.35356,-7.07107 0,-2.82843 -1.76776,-4.59619 -2.47488,-4.59619 -1.06066,-4.24264 0,-6.36397 -2.82843,-0.35355 -2.12132,-1.41421 -1.06066,-6.36396 -1.41421,-2.82843 -0.70711,-3.18198 0,-2.12132 1.41422,-1.41421 2.12132,0 c 0,0 -1.70493,-5.5997 -2.12132,-8.48529 -0.40431,-2.80186 -0.36533,-5.65442 -0.35356,-8.48528 0.01,-2.35995 -0.13509,-4.76225 0.35356,-7.07107 0.67976,-3.2118 1.98783,-6.29715 3.53553,-9.19238 1.15611,-2.16271 2.57938,-4.20834 4.24264,-6.01041 2.49712,-2.7055404 5.23438,-5.3427204 8.48528,-7.0710704 3.35902,-1.78583 7.31534,-2.09223 10.96016,-3.18198 1.53577,-0.45918 2.9979,-1.29210999 4.59619,-1.41420999 4.03827,-0.30849 8.17382,0.50149999 12.02082,1.76775999 3.80606,1.25278 7.4215,3.22567 10.6066,5.65686 2.31939,1.7704 4.20861,4.0688704 6.01041,6.3639604 1.47356,1.87698 2.738,3.92008 3.88908,6.01041 0.81393,1.47808 1.75934,2.9481 2.12132,4.59619 0.70789,3.22301 0,6.59967 0,9.8995 0,3.77123 0,11.3137 0,11.3137 l -1.76776,2.47488 2.82843,1.41421 0,4.24264 -1.41422,5.65686 -0.70711,2.82842 -0.7071,2.47488 -1.06066,2.47487 -2.12132,1.06066 -1.76777,-0.70711 -1.06066,2.12132 -2.47487,12.72793 -2.82843,4.24264 -1.41421,9.19239 1.41421,8.485278 2.12132,5.65685 6.71751,6.01041 10.25305,5.65685 16.61701,6.71752 8.13173,2.82842 8.83883,3.88909 4.5962,4.94975 -157.68481,-2.82843 2.12132,-2.47487 2.82842,-1.41421 3.53554,-1.06067 z"
     id="path3151"
     inkscape:connector-curvature="0"
     sodipodi:nodetypes="ccccccccccccccccccccccccssssssssssssssccccccccccccccccccccccccccc" />
  <path
     style="fill:#000000;fill-rule:evenodd;stroke:#000000;stroke-width:1px;stroke-linecap:butt;stroke-linejoin:miter;stroke-opacity:1"
     d="m 103.91287,137.53705 -5.449215,12.58203 -3.53516,14.14258 -1.06055,10.60546 -0.35351,11.66797 -0.35352,6.00977 -4.24218,11.31445 -3.89063,12.72852 -6.36328,14.14062 -3.53516,4.59766 -3.18164,1.06055 -7.77929,2.47461 -2.47461,0 -7.42383,2.82812 -3.88867,-1.41406 -7.42579,-1.76758 -4.5957,-2.12109 -2.12109,-4.24415 -4.24219,-4.5957 -2.83008,-3.18164 -3.88867,-3.53516 0,-6.01171 -0.35352,-5.65625 -3.18164,-3.88868 c 0,0 0.009,-2.00155 -0.70703,-2.4746 -0.79255,-0.52388 -2.82812,0.35351 -2.82812,0.35351 l -0.70703,2.47461 -1.41407,3.88867 0.70704,2.1211 -5.30469,3.53515 -7.4238305,8.48633 c 0,0 -2.54923,0.44093 -3.18163995,1.41406 -0.83476,1.28449 0,4.59571 0,4.59571 l 1.06054995,6.36523 0,2.47461 0,5.30273 1.76757,2.82813 4.59571,1.76758 0.35351,2.47461 3.1816405,2.83007 6.01172,-0.70703 8.13086,0.35352 7.42578,0.35351 0,1.41407 -0.70703,0 -6.71875,1.76757 -7.07031,4.59571 -5.30274,8.13086 -2.12304,7.77929 0,8.48438 1.76953,4.95117 3.88867,8.48438 9.19141,10.96093 11.66797,10.95899 14.14257,8.13281 20.85938,6.7168 18.38476,9.54687 -4.24218,1.76758 c 0,0 -4.33322,2.0227 -5.65821,3.88867 -0.77788,1.09548 -1.06054,3.88867 -1.06054,3.88867 l -0.70703,4.94922 -2.82813,2.83008 c -0.32942,1.69223 -2.53868,3.51768 1.41406,4.5957 l 3.88867,1.06055 c 0,0 0.70924,2.58822 1.76758,3.18164 2.46922,1.38451 8.48633,-0.35351 8.48633,-0.35351 l 2.47461,2.12109 6.009765,-1.41406 2.47461,0 c 0,0 7.5164,-1.55284 11.31445,-1.41406 3.60315,0.13164 7.05769,1.48909 10.60742,2.12109 3.7579,0.66906 7.52913,1.26207 11.3125,1.76758 5.28893,0.70667 10.58239,1.4725 15.91016,1.76757 2.70643,0.14991 5.43542,0.26712 8.13281,0 4.18601,-0.41449 8.33728,-1.28843 12.37305,-2.4746 3.40147,-0.99974 9.90039,-3.88868 9.90039,-3.88868 l 12.72656,-4.94922 13.08203,-1.76757 8.83984,0 13.08008,2.12109 10.60742,4.24219 13.08204,3.53515 5.65625,4.59571 2.4746,0 4.59571,-2.1211 0,-3.18164 -1.41406,-6.00976 -0.70704,-1.41407 -4.5957,-4.95117 -2.82812,-1.06054 -2.1211,-4.94922 6.7168,-3.88867 10.96094,-4.94922 7.77734,-1.76953 10.96094,-3.18165 12.37305,-7.07031 10.96093,-7.42383 12.02149,-11.31445 7.77734,-12.375 6.7168,-11.66601 1.0625,-9.9004 -1.41602,-9.1914 -7.07031,-10.60742 -5.30273,-3.53516 9.89843,-0.70703 3.18164,-3.18164 2.12305,0 5.65625,-2.12305 3.18164,-5.65625 3.53516,-1.41406 1.06054,-2.47461 1.41407,-10.25391 1.06054,-4.94921 0,-7.07032 -1.76758,-1.41406 -2.4746,1.41406 -2.1211,2.47461 -1.76758,-3.18164 -4.5957,-6.36523 -6.36523,-3.18164 0,-2.47461 -0.35352,-2.47461 -1.76758,-0.70703 -2.82812,2.82812 -3.18164,6.36328 0.70703,6.36524 -1.76758,3.53515 -5.30273,6.00977 -3.89063,6.36523 -6.36328,4.94922 -5.65625,2.1211 -9.54688,1.76757 -3.53515,0 -14.14258,-5.65625 -1.76758,-2.82812 -3.53515,-9.54688 -4.94922,-15.20312 -4.24414,-17.32422 0.35547,-9.89844 0,-12.72851 -2.12305,-12.72852 -2.47461,-8.83789 -3.38867,-9.19336 z m 17.88476,46.52343 0.35352,7.07032 1.76953,2.82812 0,7.07227 4.24219,11.66601 2.12109,8.48633 1.41406,6.7168 0,4.24218 c 0,0 -0.58449,4.55679 0,6.71876 0.42724,1.58033 2.47461,4.24218 2.47461,4.24218 l -2.12109,7.77735 -4.24219,8.83984 -5.30469,10.96094 -3.53515,2.82812 0.35351,1.41407 -4.5957,4.24218 0,1.41406 -2.47461,1.06055 -11.31445,-6.00976 -11.666015,-7.07227 8.13086,-6.00976 3.888665,-5.30274 0.70703,-7.42578 1.76758,-4.94922 9.19336,-21.56641 4.5957,-14.84961 2.82813,-17.32421 z m 120.20899,3.18164 1.06054,15.20313 2.82813,15.20312 3.88867,12.72657 3.89062,11.31445 3.53516,12.02148 1.41406,6.36329 4.24219,5.30273 7.07227,5.30469 1.06054,0.70703 -6.36523,4.5957 -5.65625,3.53516 -13.08203,3.53515 -5.30274,0.35352 -2.82812,-3.53516 -1.41406,-6.71679 -2.82813,-8.83985 -4.24414,-7.07031 -0.35352,-14.84961 0,-9.19336 4.24415,-11.66601 3.88867,-15.91016 1.41406,-2.47461 0,-3.18164 1.76758,-9.19336 z m 99.34765,27.92969 3.53711,5.6582 5.30274,6.7168 0,3.53516 -1.41407,1.76758 -6.00976,-3.18164 0,-5.30274 -1.41602,-3.18164 z m -324.207025,4.59766 -1.76758,4.5957 0,3.88867 -1.06054,2.1211 -3.89063,2.82812 -0.35352,-3.88867 2.82813,-5.30273 z"
     id="path3153"
     inkscape:connector-curvature="0"
     sodipodi:nodetypes="ccccccccccccccccccccccccsccccccsccccccccccccccccccccccccccscccscsccccsssscscccccccccccccccccccccccccccccccccccccccccccccccccccccccccccccccccccccccccccccscccccccccccccccccccccccccccccccccccccccccccccccccccccccccccccc" />
  <path
     style="fill:#000000;fill-rule:evenodd;stroke:#000000;stroke-width:1px;stroke-linecap:butt;stroke-linejoin:miter;stroke-opacity:1"
     d="m 265.34119,367.20069 3.53553,0 2.12132,2.47488 0.70711,2.82842 c 0,0 0.4483,1.57448 0,2.12132 -1.14294,1.39416 -5.3033,1.06066 -5.3033,1.06066 z"
     id="path3163"
     inkscape:connector-curvature="0"
     sodipodi:nodetypes="ccccscc" />
  <path
     sodipodi:type="spiral"
     style="fill:none;fill-rule:evenodd;stroke:#ffffff;stroke-width:3;stroke-linecap:butt;stroke-linejoin:miter;stroke-opacity:1"
     id="path3175"
     sodipodi:cx="-181.5899"
     sodipodi:cy="277.55157"
     sodipodi:expansion="0.5"
     sodipodi:revolution="4"
     sodipodi:radius="34.234486"
     sodipodi:argument="-23.679054"
     sodipodi:t0="0"
     d="m -181.5899,277.55157 c 0.78157,6.64334 -6.52679,5.35668 -8.5,1.00001 -2.49467,-5.50797 1.71407,-11.50554 7.08577,-13.02082 7.27193,-2.0513 14.52608,3.18051 16.13666,10.28875 1.95704,8.63737 -4.23901,17.04311 -12.72242,18.73206 -9.80649,1.95237 -19.24122,-5.10008 -21.00659,-14.76392 -1.98166,-10.84781 5.84205,-21.2162 16.55707,-23.05674 11.79652,-2.0263 23.0242,6.50285 24.93839,18.1749 2.07849,12.67388 -7.10399,24.70125 -19.66044,26.68739 -13.49402,2.13444 -26.27214,-7.65899 -28.32844,-21.04161 -2.19218,-14.2669 8.17698,-27.75469 22.3377,-29.87937 14.9999,-2.2506 29.16228,8.66443 31.3536,23.56271 2.30905,15.69863 -9.12614,30.50521 -24.72719,32.76151 -16.36749,2.36714 -31.79161,-9.56579 -34.1113,-25.8393 -2.42467,-17.01003 9.98623,-33.02808 26.90551,-35.40965 17.62915,-2.48149 34.22,10.38976 36.66203,27.93108 2.53752,18.22722 -10.77829,35.37185 -28.92033,37.873"
     transform="matrix(0,-1,-1,0,458.94579,98.04657)" />
</svg>
